<svg width="48" height="48" viewBox="0 0 48 48" fill="none" xmlns="http://www.w3.org/2000/svg">
<circle cx="39" cy="9" r="9" fill="#F89763"/>
<path fill-rule="evenodd" clip-rule="evenodd" d="M31.5 6H16.5C15.6111 6 14.8289 6.58667 14.58 7.44L12.6667 14H35.3333L33.42 7.44C33.1711 6.58667 32.3889 6 31.5 6ZM12.66 6.88L10.5182 14.2232C8.48027 14.8547 7 16.7545 7 19V21H9V19C9 17.3431 10.3431 16 12 16H36C37.6569 16 39 17.3431 39 19V21H41V19C41 16.7545 39.5197 14.8547 37.4818 14.2232L35.34 6.88C34.8422 5.17333 33.2778 4 31.5 4H16.5C14.7222 4 13.1578 5.17333 12.66 6.88ZM15 20C15 20.3643 14.9026 20.7058 14.7324 21H11.2676C11.0974 20.7058 11 20.3643 11 20C11 18.8954 11.8954 18 13 18C14.1046 18 15 18.8954 15 20ZM32 25H16L16 42H32V25ZM34 25V42H42V25H34ZM6 25H14L14 42H6V25ZM6 23C4.89543 23 4 23.8954 4 25V42C4 43.1046 4.89543 44 6 44H42C43.1046 44 44 43.1046 44 42V25C44 23.8954 43.1046 23 42 23H6ZM12 29H8V27H12V29ZM36 40H40V38H36V40ZM21 36V35H19V33H21V27H23H25C27.2091 27 29 28.7909 29 31C29 33.2091 27.2091 35 25 35H23V36H26V38H23V40H21V38H19V36H21ZM23 33V29H25C26.1046 29 27 29.8954 27 31C27 32.1046 26.1046 33 25 33H23ZM37 20C37 20.3643 36.9026 20.7058 36.7324 21H33.2676C33.0974 20.7058 33 20.3643 33 20C33 18.8954 33.8954 18 35 18C36.1046 18 37 18.8954 37 20Z" fill="#333333"/>
</svg>
