<svg width="48" height="48" viewBox="0 0 48 48" fill="none" xmlns="http://www.w3.org/2000/svg">
<circle cx="32" cy="12" r="9" fill="#F89763"/>
<path fill-rule="evenodd" clip-rule="evenodd" d="M11.5608 41L27.5 14.8434L43.4392 41H11.5608ZM25.7921 13.8027L9.85295 39.9593C9.04079 41.292 10.0001 43 11.5608 43H43.4392C44.9999 43 45.9592 41.292 45.147 39.9592L29.2079 13.8027C28.4285 12.5237 26.5715 12.5237 25.7921 13.8027ZM27.5 24.806L34.414 36H20.586L27.5 24.806ZM26.6492 22.3775L17.9422 36.4745C17.5307 37.1407 18.01 38 18.793 38H36.207C36.99 38 37.4693 37.1407 37.0578 36.4745L28.3508 22.3775C27.96 21.7448 27.04 21.7448 26.6492 22.3775Z" fill="#333333"/>
<mask id="mask0" mask-type="alpha" maskUnits="userSpaceOnUse" x="2" y="2" width="29" height="32">
<path d="M10 34L25 10H30H31V2H2V34H10Z" fill="#C4C4C4"/>
</mask>
<g mask="url(#mask0)">
<path fill-rule="evenodd" clip-rule="evenodd" d="M24.8769 6H10.1231C9.20537 6 8.4054 6.62459 8.18282 7.51493L6.56155 14H28.4384L26.8172 7.51493C26.5946 6.62459 25.7946 6 24.8769 6ZM6.24254 7.02986L4.41883 14.3247C2.99606 14.9376 2 16.3525 2 18V21.3055V22V28C2 29.1046 2.89543 30 4 30H5.97222C7.07679 30 7.97222 29.1046 7.97222 28V26H27V28C27 29.1046 27.8954 30 29 30H31C32.1046 30 33 29.1046 33 28V22V21V18C33 16.3525 32.0039 14.9376 30.5812 14.3247L28.7575 7.02986C28.3123 5.24919 26.7124 4 24.8769 4H10.1231C8.28763 4 6.6877 5.24919 6.24254 7.02986ZM29 28L29 26C29.7286 26 30.4117 25.8052 31 25.4649V28H29ZM31 21V22C31 23.1046 30.1046 24 29 24H6C4.89543 24 4 23.1046 4 22V21.3055V18C4 16.8954 4.89543 16 6 16H29C30.1046 16 31 16.8954 31 18V21ZM5.97222 25.9999C5.25406 25.995 4.58086 25.8009 4 25.4649V28H5.97222V25.9999ZM7.5 21C8.32843 21 9 20.3284 9 19.5C9 18.6716 8.32843 18 7.5 18C6.67157 18 6 18.6716 6 19.5C6 20.3284 6.67157 21 7.5 21Z" fill="#333333"/>
</g>
</svg>
