<svg width="48" height="48" viewBox="0 0 48 48" fill="none" xmlns="http://www.w3.org/2000/svg">
<circle cx="39" cy="13" r="9" fill="#F89763"/>
<path fill-rule="evenodd" clip-rule="evenodd" d="M22 9V4H24L24 7.00049C26.215 7.03415 28 8.8119 28 11C28 13.2091 26.1805 15 23.936 15C22.0423 15 20.4511 13.7252 20 12H22.1494C22.5015 12.5905 23.1577 13 23.936 13C25.106 13 26 12.0748 26 11C26 9.94494 25.1384 9.03395 24 9.00093L24 9H22ZM4 44V42H13H35H44V44H4ZM35 42C33.1362 42 31.5701 40.7252 31.126 39H16.874C16.4299 40.7252 14.8638 42 13 42C11.1362 42 9.57006 40.7252 9.12602 39H8C5.79086 39 4 37.2091 4 35V32C4 29.7909 5.79086 28 8 28H9.48889L10.4544 24.0502C10.8921 22.2596 12.4967 21 14.34 21H26.4915C27.9201 21 29.2402 21.7619 29.9549 22.9989L32.8581 28.0237C32.9707 28.036 33.0828 28.0531 33.1941 28.0749L40.4333 29.4961C41.9925 29.8022 43.2227 31.0023 43.5674 32.5535L43.9183 34.1323C44.4734 36.6303 42.5725 39 40.0135 39H38.874C38.4299 40.7252 36.8638 42 35 42ZM35 34C33.1362 34 31.5701 35.2748 31.126 37H16.874C16.4299 35.2748 14.8638 34 13 34C11.1362 34 9.57006 35.2748 9.12602 37H8C7.25972 37 6.61337 36.5978 6.26756 36H7C7.55228 36 8 35.5523 8 35C8 34.4477 7.55228 34 7 34H6V32C6 30.8954 6.89543 30 8 30H9H32.4236C32.5529 30 32.6819 30.0125 32.8089 30.0375L40.048 31.4586C40.8276 31.6117 41.4427 32.2117 41.6151 32.9873L41.8401 34H41C40.4477 34 40 34.4477 40 35C40 35.5523 40.4477 36 41 36H41.7459C41.4036 36.5909 40.7654 37 40.0135 37H38.874C38.4299 35.2748 36.8638 34 35 34ZM13 40C14.1046 40 15 39.1046 15 38C15 36.8954 14.1046 36 13 36C11.8954 36 11 36.8954 11 38C11 39.1046 11.8954 40 13 40ZM35 40C33.8954 40 33 39.1046 33 38C33 36.8954 33.8954 36 35 36C36.1046 36 37 36.8954 37 38C37 39.1046 36.1046 40 35 40ZM26.4915 23H14.34C13.4184 23 12.616 23.6298 12.3972 24.5251L11.5478 28H30.5346L28.2232 23.9994C27.8658 23.381 27.2058 23 26.4915 23ZM19 34C18.4477 34 18 34.4477 18 35C18 35.5523 18.4477 36 19 36H29C29.5523 36 30 35.5523 30 35C30 34.4477 29.5523 34 29 34H19ZM8 19L40 19V17L8 17V19Z" fill="#333333"/>
</svg>
