<svg width="48" height="48" viewBox="0 0 48 48" fill="none" xmlns="http://www.w3.org/2000/svg">
<circle cx="37" cy="9" r="9" fill="#F89763"/>
<path fill-rule="evenodd" clip-rule="evenodd" d="M42.0044 18.0469L42.0085 29.9439C42.0092 32.0013 40.9557 33.9152 39.2173 35.015L27.2196 42.6049C25.2612 43.8438 22.764 43.8438 20.8049 42.6048L8.80326 35.0148C7.06436 33.9151 6.00981 32.0014 6.00911 29.9443L6.00508 18.0561C6.00438 15.9987 7.05784 14.0848 8.79626 12.985L20.802 5.39004C22.7573 4.1531 25.2499 4.15101 27.208 5.38467L32.93 8.98964L32.9357 8.99328L39.2189 12.9818C40.9529 14.0825 42.0037 15.9933 42.0044 18.0469ZM28.2738 3.6926L34.0015 7.30121L40.2904 11.2933C42.6023 12.7609 44.0035 15.3088 44.0044 18.0468L44.0085 29.9439C44.0094 32.687 42.6048 35.2389 40.2869 36.7052L28.2892 44.2952C25.678 45.947 22.3485 45.947 19.7363 44.295L7.73464 36.7051C5.41611 35.2388 4.01004 32.6872 4.00911 29.9443L4.00508 18.0561C4.00415 15.313 5.40876 12.7611 7.72665 11.2948L19.7324 3.69975C22.3394 2.05051 25.663 2.04772 28.2738 3.6926ZM29.5843 15H18.4157C17.4767 15 16.6641 15.6532 16.4624 16.5703L15.4878 21H16H32H32.5122L31.5376 16.5703C31.3359 15.6532 30.5233 15 29.5843 15ZM14.5091 16.1406L13.1853 22.158C12.4534 22.8829 12 23.8885 12 25V27V27.5V32C12 33.1046 12.8954 34 14 34H15C16.1046 34 17 33.1046 17 32V30.5H31V32C31 33.1046 31.8954 34 33 34H34C35.1046 34 36 33.1046 36 32V27.5V27V25C36 23.8885 35.5466 22.8829 34.8148 22.158L33.4909 16.1406C33.0874 14.3064 31.4623 13 29.5843 13H18.4157C16.5377 13 14.9126 14.3064 14.5091 16.1406ZM33 32V30.5C33.3506 30.5 33.6872 30.4398 34 30.3293V32H33ZM34 27V27.5C34 28.0523 33.5523 28.5 33 28.5H15C14.4477 28.5 14 28.0523 14 27.5V27V25C14 23.8954 14.8954 23 16 23H32C33.1046 23 34 23.8954 34 25V27ZM15 30.5C14.6494 30.5 14.3128 30.4398 14 30.3293V32H15V30.5ZM16.5 27C17.3284 27 18 26.3284 18 25.5C18 24.6716 17.3284 24 16.5 24C15.6716 24 15 24.6716 15 25.5C15 26.3284 15.6716 27 16.5 27ZM33 25.5C33 26.3284 32.3284 27 31.5 27C30.6716 27 30 26.3284 30 25.5C30 24.6716 30.6716 24 31.5 24C32.3284 24 33 24.6716 33 25.5Z" fill="#333333"/>
</svg>
