<svg width="48" height="48" viewBox="0 0 48 48" fill="none" xmlns="http://www.w3.org/2000/svg">
<circle cx="39" cy="9" r="9" fill="#F89763"/>
<path fill-rule="evenodd" clip-rule="evenodd" d="M28 42C35.732 42 42 35.732 42 28C42 20.268 35.732 14 28 14C20.268 14 14 20.268 14 28C14 35.732 20.268 42 28 42ZM28 44C36.8366 44 44 36.8366 44 28C44 19.1634 36.8366 12 28 12C19.1634 12 12 19.1634 12 28C12 36.8366 19.1634 44 28 44Z" fill="#333333"/>
<circle cx="28" cy="28" r="9" stroke="#333333" stroke-width="2"/>
<mask id="mask0" style="mask-type:alpha" maskUnits="userSpaceOnUse" x="18" y="18" width="20" height="20">
<path fill-rule="evenodd" clip-rule="evenodd" d="M28 38C33.5228 38 38 33.5228 38 28C38 22.4772 33.5228 18 28 18C22.4772 18 18 22.4772 18 28C18 33.5228 22.4772 38 28 38ZM28 32C30.2091 32 32 30.2091 32 28C32 25.7909 30.2091 24 28 24C25.7909 24 24 25.7909 24 28C24 30.2091 25.7909 32 28 32Z" fill="#2CF57C"/>
</mask>
<g mask="url(#mask0)">
<path fill-rule="evenodd" clip-rule="evenodd" d="M27 36V20H29V36H27Z" fill="#333333"/>
<path fill-rule="evenodd" clip-rule="evenodd" d="M20 27L36 27L36 29L20 29L20 27Z" fill="#333333"/>
<path fill-rule="evenodd" clip-rule="evenodd" d="M33.293 34.7071L21.293 22.7071L22.7072 21.2928L34.7072 33.2928L33.293 34.7071Z" fill="#333333"/>
<path fill-rule="evenodd" clip-rule="evenodd" d="M21.293 33.2928L33.293 21.2928L34.7072 22.7071L22.7072 34.7071L21.293 33.2928Z" fill="#333333"/>
</g>
<path fill-rule="evenodd" clip-rule="evenodd" d="M28 30C29.1046 30 30 29.1046 30 28C30 26.8954 29.1046 26 28 26C26.8954 26 26 26.8954 26 28C26 29.1046 26.8954 30 28 30ZM28 32C30.2091 32 32 30.2091 32 28C32 25.7909 30.2091 24 28 24C25.7909 24 24 25.7909 24 28C24 30.2091 25.7909 32 28 32Z" fill="#333333"/>
<path fill-rule="evenodd" clip-rule="evenodd" d="M9 4C6.23858 4 4 6.23858 4 9V13C4 14.6356 4.78534 16.0878 5.99952 17C4.78534 17.9122 4 19.3644 4 21V25C4 26.6356 4.78534 28.0878 5.99952 29C4.78534 29.9122 4 31.3644 4 33V37C4 39.7614 6.23858 42 9 42H15.5V40H9C7.34315 40 6 38.6569 6 37V33C6 31.3431 7.34315 30 9 30H10V28H9C7.34315 28 6 26.6569 6 25V21C6 19.3431 7.34315 18 9 18H14V16H9C7.34315 16 6 14.6569 6 13V9C6 7.34315 7.34315 6 9 6H32C33.6569 6 35 7.34315 35 9V12H37V9C37 6.23858 34.7614 4 32 4H9ZM9.44722 9.89445C8.95324 10.1414 8.35256 9.94122 8.10557 9.44724C7.85859 8.95326 8.05881 8.35259 8.55279 8.1056L10.5528 7.1056C10.8343 6.96483 11.1657 6.96483 11.4472 7.1056L13 7.88199L14.5528 7.1056C14.8286 6.96768 15.1527 6.96475 15.431 7.09766L17.0728 7.88179L18.5355 7.11448C18.8203 6.96507 19.1595 6.96177 19.4472 7.1056L21 7.88199L22.5406 7.11171C22.5645 7.09935 22.5889 7.08797 22.6137 7.07759C22.7335 7.0273 22.8583 7.00212 22.9818 6.99996C23.1269 6.9972 23.2745 7.02606 23.4145 7.08993C23.4284 7.09625 23.4421 7.10288 23.4557 7.10983L25 7.88197L26.5528 7.10557C26.8286 6.96765 27.1527 6.96472 27.431 7.09764L29.0728 7.88177L30.5354 7.11445C31.0245 6.85789 31.629 7.04638 31.8855 7.53545C32.1421 8.02452 31.9536 8.62898 31.4645 8.88555L29.5583 9.88555C29.2791 10.032 28.9472 10.0382 28.6628 9.90236L27.0101 9.11301L25.4472 9.89443C25.1657 10.0352 24.8343 10.0352 24.5528 9.89443L23 9.11805L21.4472 9.89445C21.1657 10.0352 20.8343 10.0352 20.5528 9.89445L19.0109 9.12353L17.5583 9.88557C17.2791 10.032 16.9472 10.0383 16.6628 9.90239L15.0101 9.11303L13.4472 9.89445C13.1657 10.0352 12.8343 10.0352 12.5528 9.89445L11 9.11806L9.44722 9.89445ZM17.9961 14.431C18.2341 13.9326 18.0231 13.3357 17.5247 13.0976L15.431 12.0976C15.1527 11.9647 14.8286 11.9677 14.5528 12.1056L13 12.882L11.4472 12.1056C11.1657 11.9648 10.8343 11.9648 10.5528 12.1056L8.55279 13.1056C8.05881 13.3526 7.85859 13.9532 8.10557 14.4472C8.35256 14.9412 8.95324 15.1414 9.44722 14.8944L11 14.118L12.5528 14.8944C12.8343 15.0352 13.1657 15.0352 13.4472 14.8944L15.0101 14.113L16.6628 14.9024C17.1611 15.1404 17.7581 14.9294 17.9961 14.431ZM9.44722 38.8945C8.95324 39.1414 8.35256 38.9412 8.10557 38.4472C7.85859 37.9533 8.05881 37.3526 8.55279 37.1056L10.5528 36.1056C10.8343 35.9648 11.1657 35.9648 11.4472 36.1056L13.4472 37.1056C13.9412 37.3526 14.1414 37.9533 13.8944 38.4472C13.6474 38.9412 13.0468 39.1414 12.5528 38.8945L11 38.1181L9.44722 38.8945ZM8.10557 21.4472C8.35256 21.9412 8.95324 22.1414 9.44722 21.8945L11.4472 20.8945C11.9412 20.6475 12.1414 20.0468 11.8944 19.5528C11.6474 19.0588 11.0468 18.8586 10.5528 19.1056L8.55279 20.1056C8.05881 20.3526 7.85859 20.9533 8.10557 21.4472ZM9.44722 26.8945C8.95324 27.1414 8.35256 26.9412 8.10557 26.4472C7.85859 25.9533 8.05881 25.3526 8.55279 25.1056L9.55279 24.6056C10.0468 24.3586 10.6474 24.5588 10.8944 25.0528C11.1414 25.5468 10.9412 26.1475 10.4472 26.3945L9.44722 26.8945ZM9.44722 33.8945C8.95324 34.1414 8.35256 33.9412 8.10557 33.4472C7.85859 32.9533 8.05881 32.3526 8.55279 32.1056L9.55279 31.6056C10.0468 31.3586 10.6474 31.5588 10.8944 32.0528C11.1414 32.5468 10.9412 33.1475 10.4472 33.3945L9.44722 33.8945Z" fill="#333333"/>
</svg>
