<svg width="48" height="48" viewBox="0 0 48 48" fill="none" xmlns="http://www.w3.org/2000/svg">
<circle cx="39" cy="11" r="9" fill="#F89763"/>
<path fill-rule="evenodd" clip-rule="evenodd" d="M9 6H27C28.1046 6 29 6.89543 29 8V40C29 41.1046 28.1046 42 27 42H9C7.89543 42 7 41.1046 7 40V8C7 6.89543 7.89543 6 9 6ZM5 8C5 5.79086 6.79086 4 9 4H27C29.2091 4 31 5.79086 31 8V15H32C33.6569 15 35 16.3431 35 18V36C35 36.1733 35.0602 36.4555 35.2115 36.6657C35.3261 36.8249 35.5259 37 36 37C36.4741 37 36.6739 36.8249 36.7885 36.6657C36.9398 36.4555 37 36.1733 37 36V11.638L42.2318 5.35982L43.7682 6.64019L39.9099 11.2702C41.5423 11.7607 42.5257 12.8154 42.8944 13.5528L43 13.7639V20H39V36C39 36.4934 38.8602 37.2111 38.4115 37.8343C37.9261 38.5085 37.1259 39 36 39C34.8741 39 34.0739 38.5085 33.5885 37.8343C33.1398 37.2111 33 36.4934 33 36V18C33 17.4477 32.5523 17 32 17H31V40C31 42.2091 29.2091 44 27 44H9C6.79086 44 5 42.2091 5 40V8ZM39 18H41V14.2795C40.7438 13.9303 40.1113 13.3363 39 13.1007V18ZM11 10H25V20H11V10ZM9 10C9 8.89543 9.89543 8 11 8H25C26.1046 8 27 8.89543 27 10V20C27 21.1046 26.1046 22 25 22H11C9.89543 22 9 21.1046 9 20V10ZM23 14H13V12H23V14ZM13 18H19V16H13V18Z" fill="#333333"/>
</svg>
