<svg width="48" height="48" viewBox="0 0 48 48" fill="none" xmlns="http://www.w3.org/2000/svg">
<circle cx="39" cy="9" r="9" fill="#F89763"/>
<path fill-rule="evenodd" clip-rule="evenodd" d="M32.4415 6C32.0111 6 31.6289 6.27543 31.4928 6.68377L30.2107 10.5303C30.1268 10.7819 30.1463 11.0565 30.2649 11.2938L31.3416 13.4472C31.511 13.786 31.8573 14 32.2361 14H33.7639C34.1427 14 34.489 13.786 34.6584 13.4472L35.7351 11.2938C35.8537 11.0565 35.8732 10.7819 35.7893 10.5303L34.5072 6.68377C34.371 6.27543 33.9889 6 33.5585 6H32.4415ZM29.5955 6.05132C30.0038 4.82629 31.1502 4 32.4415 4H33.5585C34.8498 4 35.9962 4.82629 36.4045 6.05132L37.6867 9.89786C37.9383 10.6527 37.8798 11.4765 37.5239 12.1882L36.4472 14.3416C36.3263 14.5836 36.1752 14.8043 36 15.0001V25.5278L38.3209 27.5693C38.7526 27.9491 39 28.4962 39 29.0711V30V32V39V41V42C39 43.1046 38.1046 44 37 44H29C27.8954 44 27 43.1046 27 42V41V39V32V30V29.0711C27 28.4962 27.2474 27.9491 27.6791 27.5693L30 25.5278V15.0001C29.8248 14.8043 29.6737 14.5836 29.5528 14.3416L28.4761 12.1882C28.1202 11.4765 28.0617 10.6527 28.3133 9.89786L29.5955 6.05132ZM37 29.0711V30C35.3431 30 34 31.3431 34 33V38C34 39.6569 35.3431 41 37 41V42H29V41C30.6569 41 32 39.6569 32 38V33C32 31.3431 30.6569 30 29 30V29.0711L31.3545 27H34.6455L37 29.0711ZM37 32V39C36.4477 39 36 38.5523 36 38V33C36 32.4477 36.4477 32 37 32ZM29 32V39C29.5523 39 30 38.5523 30 38V33C30 32.4477 29.5523 32 29 32ZM33.7639 16C33.8431 16 33.9219 15.9969 34 15.9907V25H32V15.9907C32.0781 15.9969 32.1569 16 32.2361 16H33.7639ZM10 11C10 9.30772 10.6949 8.10422 11.5599 7.29113C11.7035 7.15616 11.851 7.03267 12 6.92022V10C12 11.6569 13.3431 13 15 13H17C18.6569 13 20 11.6569 20 10V6.92022C20.149 7.03267 20.2965 7.15616 20.4401 7.29113C21.3051 8.10422 22 9.30772 22 11C22 14.866 19.7413 15.8935 18.8864 16.0064C18.3876 16.0628 18 16.4861 18 17L18 31C18 31.5138 18.3876 31.9372 18.8863 31.9936C19.7412 32.1064 22 33.1339 22 37C22 38.6923 21.3051 39.8958 20.4401 40.7089C20.2965 40.8438 20.149 40.9673 20 41.0798V38C20 36.3431 18.6569 35 17 35H15C13.3431 35 12 36.3431 12 38L12 41.0798C11.851 40.9673 11.7035 40.8438 11.5599 40.7089C10.6949 39.8958 10 38.6923 10 37C10 33.134 12.2587 32.1065 13.1136 31.9936C13.6124 31.9372 14 31.5139 14 31V17C14 16.4861 13.6124 16.0628 13.1136 16.0064C12.2587 15.8935 10 14.8659 10 11ZM14 41.9925C14.0344 41.9976 14.0676 42.0018 14.0995 42.005L13.9005 43.995C12.8295 43.8879 11.3782 43.2829 10.1901 42.1661C8.97174 41.0209 8 39.3077 8 37C8 32.8102 10.2179 30.8495 12 30.22V17.78C10.2179 17.1505 8 15.1898 8 11C8 8.69228 8.97174 6.97912 10.1901 5.83387C11.3782 4.71709 12.8295 4.11206 13.9005 4.00496L14.0995 5.99504C14.0676 5.99823 14.0344 6.00238 14 6.00751V10C14 10.5523 14.4477 11 15 11H17C17.5523 11 18 10.5523 18 10V6.00751C17.9656 6.00238 17.9324 5.99823 17.9005 5.99504L18.0995 4.00496C19.1705 4.11206 20.6218 4.71709 21.8099 5.83387C23.0283 6.97912 24 8.69228 24 11C24 15.1898 21.7821 17.1505 20 17.78L20 30.22C21.7821 30.8495 24 32.8102 24 37C24 39.3077 23.0283 41.0209 21.8099 42.1661C20.6218 43.2829 19.1705 43.8879 18.0995 43.995L17.9005 42.005C17.9324 42.0018 17.9656 41.9976 18 41.9925V38C18 37.4477 17.5523 37 17 37H15C14.4477 37 14 37.4477 14 38L14 41.9925ZM16 18C16.5523 18 17 18.4477 17 19L17 29C17 29.5523 16.5523 30 16 30C15.4477 30 15 29.5523 15 29L15 19C15 18.4477 15.4477 18 16 18Z" fill="#333333"/>
</svg>
